<mxfile host="app.diagrams.net" modified="2021-06-11T15:30:15.277Z" agent="5.0 (Windows NT 6.3; Win64; x64) AppleWebKit/537.36 (KHTML, like Gecko) Chrome/91.0.4472.77 Safari/537.36" etag="HtNuFw7pUdJSP4ZBYGPN" version="14.7.6" type="github">
  <diagram id="rTh1m4RPfAZNZ4clujfh" name="Page-1">
    <mxGraphModel dx="868" dy="450" grid="1" gridSize="10" guides="1" tooltips="1" connect="1" arrows="1" fold="1" page="1" pageScale="1" pageWidth="827" pageHeight="1169" math="0" shadow="0">
      <root>
        <mxCell id="0" />
        <mxCell id="1" parent="0" />
        <mxCell id="OV-58JopaIWz1rf7RCja-4" value="" style="edgeStyle=orthogonalEdgeStyle;rounded=0;orthogonalLoop=1;jettySize=auto;html=1;" edge="1" parent="1" source="OV-58JopaIWz1rf7RCja-1" target="OV-58JopaIWz1rf7RCja-3">
          <mxGeometry relative="1" as="geometry" />
        </mxCell>
        <mxCell id="OV-58JopaIWz1rf7RCja-1" value="Inicio" style="ellipse;whiteSpace=wrap;html=1;" vertex="1" parent="1">
          <mxGeometry x="340" y="40" width="120" height="80" as="geometry" />
        </mxCell>
        <mxCell id="OV-58JopaIWz1rf7RCja-6" value="" style="edgeStyle=orthogonalEdgeStyle;rounded=0;orthogonalLoop=1;jettySize=auto;html=1;" edge="1" parent="1" source="OV-58JopaIWz1rf7RCja-3" target="OV-58JopaIWz1rf7RCja-5">
          <mxGeometry relative="1" as="geometry" />
        </mxCell>
        <mxCell id="OV-58JopaIWz1rf7RCja-3" value="¿Cuál es tu calificación?" style="shape=document;whiteSpace=wrap;html=1;boundedLbl=1;" vertex="1" parent="1">
          <mxGeometry x="340" y="200" width="120" height="80" as="geometry" />
        </mxCell>
        <mxCell id="OV-58JopaIWz1rf7RCja-8" value="" style="edgeStyle=orthogonalEdgeStyle;rounded=0;orthogonalLoop=1;jettySize=auto;html=1;" edge="1" parent="1" source="OV-58JopaIWz1rf7RCja-5" target="OV-58JopaIWz1rf7RCja-7">
          <mxGeometry relative="1" as="geometry" />
        </mxCell>
        <mxCell id="OV-58JopaIWz1rf7RCja-5" value="X = Calif" style="shape=parallelogram;perimeter=parallelogramPerimeter;whiteSpace=wrap;html=1;fixedSize=1;" vertex="1" parent="1">
          <mxGeometry x="340" y="370" width="120" height="60" as="geometry" />
        </mxCell>
        <mxCell id="OV-58JopaIWz1rf7RCja-10" value="" style="edgeStyle=orthogonalEdgeStyle;rounded=0;orthogonalLoop=1;jettySize=auto;html=1;" edge="1" parent="1" source="OV-58JopaIWz1rf7RCja-7" target="OV-58JopaIWz1rf7RCja-9">
          <mxGeometry relative="1" as="geometry" />
        </mxCell>
        <mxCell id="OV-58JopaIWz1rf7RCja-14" value="" style="edgeStyle=orthogonalEdgeStyle;rounded=0;orthogonalLoop=1;jettySize=auto;html=1;" edge="1" parent="1" source="OV-58JopaIWz1rf7RCja-7" target="OV-58JopaIWz1rf7RCja-13">
          <mxGeometry relative="1" as="geometry" />
        </mxCell>
        <mxCell id="OV-58JopaIWz1rf7RCja-7" value="si X =&amp;gt; 6" style="rhombus;whiteSpace=wrap;html=1;" vertex="1" parent="1">
          <mxGeometry x="330" y="500" width="140" height="80" as="geometry" />
        </mxCell>
        <mxCell id="OV-58JopaIWz1rf7RCja-9" value="Reprobado" style="shape=document;whiteSpace=wrap;html=1;boundedLbl=1;" vertex="1" parent="1">
          <mxGeometry x="560" y="500" width="120" height="80" as="geometry" />
        </mxCell>
        <mxCell id="OV-58JopaIWz1rf7RCja-16" value="" style="edgeStyle=orthogonalEdgeStyle;rounded=0;orthogonalLoop=1;jettySize=auto;html=1;" edge="1" parent="1" source="OV-58JopaIWz1rf7RCja-13" target="OV-58JopaIWz1rf7RCja-15">
          <mxGeometry relative="1" as="geometry" />
        </mxCell>
        <mxCell id="OV-58JopaIWz1rf7RCja-13" value="Aprobado" style="shape=document;whiteSpace=wrap;html=1;boundedLbl=1;" vertex="1" parent="1">
          <mxGeometry x="340" y="660" width="120" height="80" as="geometry" />
        </mxCell>
        <mxCell id="OV-58JopaIWz1rf7RCja-15" value="Fin" style="ellipse;whiteSpace=wrap;html=1;" vertex="1" parent="1">
          <mxGeometry x="340" y="830" width="120" height="60" as="geometry" />
        </mxCell>
        <mxCell id="OV-58JopaIWz1rf7RCja-22" value="" style="endArrow=none;html=1;entryX=0.5;entryY=0.863;entryDx=0;entryDy=0;entryPerimeter=0;" edge="1" parent="1" target="OV-58JopaIWz1rf7RCja-9">
          <mxGeometry width="50" height="50" relative="1" as="geometry">
            <mxPoint x="620" y="810" as="sourcePoint" />
            <mxPoint x="620" y="640" as="targetPoint" />
          </mxGeometry>
        </mxCell>
        <mxCell id="OV-58JopaIWz1rf7RCja-23" value="" style="endArrow=classic;html=1;" edge="1" parent="1">
          <mxGeometry width="50" height="50" relative="1" as="geometry">
            <mxPoint x="620" y="810" as="sourcePoint" />
            <mxPoint x="400" y="810" as="targetPoint" />
          </mxGeometry>
        </mxCell>
        <mxCell id="OV-58JopaIWz1rf7RCja-24" value="Si" style="text;html=1;strokeColor=none;fillColor=none;align=center;verticalAlign=middle;whiteSpace=wrap;rounded=0;" vertex="1" parent="1">
          <mxGeometry x="354" y="611" width="40" height="20" as="geometry" />
        </mxCell>
        <mxCell id="OV-58JopaIWz1rf7RCja-25" value="No" style="text;html=1;strokeColor=none;fillColor=none;align=center;verticalAlign=middle;whiteSpace=wrap;rounded=0;" vertex="1" parent="1">
          <mxGeometry x="490" y="500" width="40" height="20" as="geometry" />
        </mxCell>
      </root>
    </mxGraphModel>
  </diagram>
</mxfile>
